<svg width="1024" height="1024" viewBox="0 0 1024 1024" fill="none" xmlns="http://www.w3.org/2000/svg">
  <defs>
    <linearGradient id="cardFill" x1="100" y1="100" x2="924" y2="924" gradientUnits="userSpaceOnUse">
      <stop offset="0%" stop-color="#FAF6EF"/>
      <stop offset="100%" stop-color="#F7F1E7"/>
    </linearGradient>

    <radialGradient id="breathGlow" cx="50%" cy="50%" r="50%">
      <stop offset="0%" stop-color="#FF7A1A" stop-opacity="0.38"/>
      <stop offset="42%" stop-color="#FF8A2A" stop-opacity="0.20"/>
      <stop offset="100%" stop-color="#FF8A2A" stop-opacity="0"/>
    </radialGradient>

    <linearGradient id="breathDot" x1="330" y1="250" x2="375" y2="305" gradientUnits="userSpaceOnUse">
      <stop offset="0%" stop-color="#FF9A36"/>
      <stop offset="100%" stop-color="#FF6A00"/>
    </linearGradient>

    <linearGradient id="orangeStroke" x1="300" y1="760" x2="760" y2="260" gradientUnits="userSpaceOnUse">
      <stop offset="0%" stop-color="#FF6500"/>
      <stop offset="100%" stop-color="#F04E00"/>
    </linearGradient>

    <filter id="softBlur" x="-40%" y="-40%" width="180%" height="180%">
      <feGaussianBlur stdDeviation="22"/>
    </filter>
  </defs>

  <rect
    x="100"
    y="100"
    width="824"
    height="824"
    rx="118"
    fill="url(#cardFill)"
    stroke="#E7DFD2"
    stroke-width="6"
  />

  <circle
    cx="258"
    cy="243"
    r="92"
    fill="url(#breathGlow)"
    filter="url(#softBlur)"
  />

  <circle
    cx="258"
    cy="243"
    r="33"
    fill="url(#breathDot)"
  />

  <g
    stroke="url(#orangeStroke)"
    stroke-width="9"
    stroke-linecap="round"
    stroke-linejoin="round"
  >
    <path d="M234 884 C228 792 290 744 390 670 C469 611 514 560 533 538" />
    <path d="M320 884 C314 791 370 733 450 650 C544 554 594 500 614 458" />
    <path d="M407 884 C401 792 455 724 528 632 C622 514 659 433 672 378" />
    <path d="M495 884 C489 790 536 710 600 606 C683 474 709 360 718 298" />
    <path d="M583 884 C578 791 615 693 665 574 C731 419 750 311 756 258" />
    <path d="M671 884 C667 786 695 664 736 523 C781 369 789 250 790 180" />
  </g>
</svg>
